<?xml version="1.0" standalone="no"?>
<!DOCTYPE svg PUBLIC "-//W3C//DTD SVG 20010904//EN"
 "http://www.w3.org/TR/2001/REC-SVG-20010904/DTD/svg10.dtd">
<svg version="1.0" xmlns="http://www.w3.org/2000/svg"
 width="313.000000pt" height="180.000000pt" viewBox="0 0 313.000000 180.000000"
 preserveAspectRatio="xMidYMid meet">

<g transform="translate(0.000000,180.000000) scale(0.100000,-0.100000)"
fill="#000000" stroke="none">
<path d="M962 735 l-2 -55 30 0 30 0 1 -192 c1 -106 0 -203 -1 -215 -1 -16 4
-23 17 -23 17 -1 17 -1 1 -14 -14 -10 -18 -28 -18 -80 l0 -66 55 0 55 0 0 74
c0 50 -4 76 -12 79 -10 4 -10 6 0 6 9 1 12 51 12 216 l0 215 61 0 c54 0 64 -3
90 -30 17 -16 28 -34 24 -40 -3 -5 2 -10 12 -10 14 0 15 -2 4 -9 -14 -9 -16
-80 -11 -373 l2 -118 50 0 49 0 -3 277 c-3 276 -3 278 -27 314 -54 80 -109 98
-296 98 l-120 1 -3 -55z m105 -241 c-3 -3 -12 -4 -19 -1 -8 3 -5 6 6 6 11 1
17 -2 13 -5z m293 -104 c0 -5 -5 -10 -11 -10 -5 0 -7 5 -4 10 3 6 8 10 11 10
2 0 4 -4 4 -10z"/>
<path d="M1491 681 c-1 -31 3 -51 9 -51 7 0 9 -9 4 -22 -12 -39 -7 -383 6
-409 63 -123 220 -143 307 -40 27 32 49 126 34 144 -6 8 -6 18 -1 27 12 19 0
143 -14 152 -8 5 -7 8 2 8 15 0 16 70 2 122 -11 37 -55 83 -95 98 -11 4 -72
11 -136 15 l-116 7 -2 -51z m244 -76 c14 -13 26 -37 26 -52 1 -15 2 -50 3 -78
1 -27 5 -56 9 -62 5 -8 4 -13 -2 -13 -7 0 -9 -27 -5 -75 5 -73 4 -76 -25 -105
-19 -20 -40 -30 -59 -30 -35 0 -78 31 -85 62 -2 13 -8 32 -12 43 -5 16 -5 17
4 5 8 -11 10 22 6 123 -2 85 0 148 7 162 22 48 95 59 133 20z m-180 -185 c3
-5 1 -10 -4 -10 -6 0 -11 5 -11 10 0 6 2 10 4 10 3 0 8 -4 11 -10z m275 -134
c0 -3 -4 -8 -10 -11 -5 -3 -10 -1 -10 4 0 6 5 11 10 11 6 0 10 -2 10 -4z
m-140 -156 c0 -5 -2 -10 -4 -10 -3 0 -8 5 -11 10 -3 6 -1 10 4 10 6 0 11 -4
11 -10z"/>
<path d="M1866 714 c-8 -21 -8 -26 2 -20 4 2 6 -11 4 -30 l-4 -34 61 0 61 0 2
-267 3 -268 48 -3 c40 -3 47 0 47 15 0 11 -6 25 -12 32 -11 11 -10 13 0 7 9
-6 12 21 11 121 -1 70 -5 136 -10 146 -6 9 -6 17 -1 17 4 0 6 43 4 95 -3 74
-1 96 9 100 17 6 67 13 97 14 19 1 22 6 22 40 0 37 -2 39 -37 45 -21 3 -97 6
-169 6 -111 0 -133 -2 -138 -16z"/>
<path d="M2270 680 c0 -43 3 -50 20 -50 18 0 20 -7 20 -84 0 -75 -2 -84 -20
-89 -29 -7 -29 -93 -1 -102 15 -5 20 -17 23 -63 4 -79 0 -102 -21 -102 -14 0
-17 -9 -17 -51 l0 -51 116 4 c104 3 120 6 161 30 36 21 51 39 68 77 11 27 21
54 21 60 0 6 -21 11 -50 11 -42 0 -50 -3 -50 -18 0 -32 -42 -62 -87 -62 l-41
0 -4 55 c-3 30 -3 68 0 85 l4 30 79 0 79 0 0 45 0 45 -85 0 -85 0 3 90 c2 100
6 105 66 94 43 -8 67 -27 75 -60 6 -20 12 -24 47 -24 l42 0 -6 37 c-11 65 -63
117 -133 133 -21 5 -81 10 -131 10 l-93 0 0 -50z m170 6 c0 -3 -4 -8 -10 -11
-5 -3 -10 -1 -10 4 0 6 5 11 10 11 6 0 10 -2 10 -4z"/>
<path d="M2693 723 c-15 -5 -18 -100 -4 -105 6 -2 6 -21 1 -48 -25 -131 45
-221 174 -226 34 -2 64 -3 68 -3 11 -1 22 -44 19 -76 -4 -46 -37 -75 -84 -75
-41 0 -58 13 -76 56 -7 16 -19 21 -55 22 -53 2 -57 -8 -27 -73 27 -59 90 -100
155 -99 140 1 224 131 168 258 -25 56 -79 85 -158 86 -76 0 -106 33 -94 102
10 55 40 82 87 81 27 -1 44 -8 60 -28 13 -14 23 -32 23 -39 0 -15 40 -23 79
-18 21 3 23 8 18 38 -9 57 -43 100 -99 128 -45 23 -64 26 -147 25 -53 0 -102
-3 -108 -6z m127 -329 c0 -8 -5 -12 -10 -9 -6 4 -8 11 -5 16 9 14 15 11 15 -7z"/>
</g>
</svg>
